<svg width="360" height="333" viewBox="0 0 360 333" fill="none" xmlns="http://www.w3.org/2000/svg">
<g style="mix-blend-mode:darken" opacity="0.5">
<path d="M-139.024 53.7489C-126.977 20.0615 -88.2899 -16.7212 -36.4109 -20.1552C20.9064 -23.9492 59.1786 22.6679 113.677 37.0221C138.539 43.5704 164.896 38.1302 191.247 39.8072C237.715 42.7645 292.729 29.1855 327.606 50.6368C360.438 70.83 358.432 107.953 347.655 136.006C337.56 162.282 297.414 175.893 271.569 196.497C247.57 215.629 231.066 237.816 201.153 252.8C162.353 272.235 121.447 304.832 73.4444 295.739C24.819 286.528 21.6826 239.403 -10.1034 212.782C-36.9005 190.34 -77.6182 177.308 -98.0235 152.136C-122.952 121.385 -150.886 86.9218 -139.024 53.7489Z" fill="#E0A5F7"/>
</g>
<g style="mix-blend-mode:darken" opacity="0.5">
<path d="M-110.828 69.2537C-98.6322 35.5362 -59.4845 -1.2829 -6.99796 -4.72719C50.9907 -8.53254 89.7001 38.1182 144.833 52.4767C169.984 59.027 196.65 53.5785 223.31 55.2532C270.32 58.2063 325.981 44.608 361.261 66.0724C394.472 86.2778 392.435 123.432 381.525 151.51C371.306 177.81 330.687 191.438 304.535 212.063C280.252 231.215 263.549 253.423 233.283 268.423C194.025 287.88 152.634 320.51 104.071 311.417C54.879 302.205 51.7165 255.041 19.5648 228.402C-7.54071 205.945 -48.7318 192.908 -69.3701 167.718C-94.583 136.945 -122.837 102.456 -110.828 69.2537Z" fill="#E0A5F7"/>
</g>
</svg>
